<?xml version="1.0" encoding="UTF-8" standalone="no"?>
<!DOCTYPE svg PUBLIC "-//W3C//DTD SVG 1.1//EN" "http://www.w3.org/Graphics/SVG/1.1/DTD/svg11.dtd">
<svg width="100%" height="100%" viewBox="0 0 1024 1024" version="1.1" xmlns="http://www.w3.org/2000/svg" xmlns:xlink="http://www.w3.org/1999/xlink" xml:space="preserve" xmlns:serif="http://www.serif.com/" style="fill-rule:evenodd;clip-rule:evenodd;stroke-linejoin:round;stroke-miterlimit:2;">
    <g transform="matrix(1.111111,0,0,1.111111,-47.149024,-45.601026)">
        <g transform="matrix(0.11579,0,-0,-0.115408,-89.459276,1092.822457)">
            <g id="layer-1">
                <path d="M5230,9013L5230,8482L5313,8476C5794,8438 6047,8382 6410,8235C6954,8014 7459,7633 7795,7189C7806,7175 7842,7128 7875,7084C8014,6899 8196,6561 8293,6303C8406,6006 8486,5640 8506,5328L8512,5221L8759,5223L9005,5225L9002,5310C8985,5796 8818,6410 8569,6901C8235,7558 7745,8092 7150,8447C6595,8778 5980,8969 5348,9006L5230,9013ZM5229,7986C5227,7984 5226,7879 5228,7753L5231,7524L5373,7512C5986,7460 6563,7156 6978,6665C7256,6336 7443,5921 7514,5480C7522,5428 7530,5358 7531,5324C7535,5217 7514,5225 7776,5225L8005,5225L8003,5310C7997,5514 7923,5877 7844,6087C7762,6307 7652,6526 7538,6695C7387,6918 7142,7186 6938,7351C6673,7566 6354,7742 6045,7843C5858,7905 5572,7964 5410,7975C5363,7978 5304,7983 5279,7985C5254,7988 5232,7988 5229,7986ZM5230,7023L5230,6583L5318,6577C5488,6564 5730,6481 5899,6375C6124,6235 6333,6012 6444,5793C6520,5640 6589,5407 6602,5255L6605,5225L7035,5225L7032,5305C7028,5408 6990,5598 6945,5738C6850,6032 6626,6360 6379,6565C6271,6655 6128,6754 6030,6808C5817,6923 5556,7000 5318,7017L5230,7023ZM5070,5599C4822,5573 4640,5370 4640,5121C4640,4980 4681,4878 4776,4784C4887,4673 5054,4616 5194,4640C5478,4691 5663,4979 5584,5249C5517,5479 5305,5623 5070,5599ZM7934,5002C7929,4998 7918,4948 7911,4891C7904,4833 7887,4716 7874,4631C7860,4545 7831,4354 7810,4205C7747,3777 7744,3766 7657,3683C7590,3620 7244,3334 7205,3310C7183,3297 7179,3298 7156,3319C7104,3368 7015,3356 6945,3289C6929,3274 6898,3249 6878,3233C6796,3171 6669,3069 6440,2882C6340,2799 6316,2752 6343,2688C6362,2642 6535,2433 6573,2409C6611,2386 6651,2385 6694,2405C6711,2413 6798,2480 6886,2552C6974,2625 7111,2737 7189,2800C7351,2932 7377,2967 7359,3035C7339,3111 7337,3108 7476,3220C7861,3530 7888,3556 7939,3665C7983,3758 7996,3820 8050,4185C8077,4372 8115,4628 8135,4755C8154,4881 8169,4989 8166,4995C8162,5007 7951,5013 7934,5002Z" style="fill:rgb(125,226,173);fill-rule:nonzero;"/>
            </g>
        </g>
        <g transform="matrix(0.11579,0,-0,-0.115408,-89.459276,1092.822457)">
            <g id="layer-2">
                <path d="M4885,9013C4399,8994 3883,8855 3391,8611C2457,8148 1775,7357 1432,6335C1139,5464 1170,4447 1515,3599C1616,3350 1790,3038 1947,2823C2588,1944 3518,1397 4630,1245C4791,1223 5267,1214 5451,1229C6578,1323 7597,1884 8261,2775C8708,3374 8985,4159 9002,4875L9005,5005L8583,5006C8283,5006 8163,5003 8166,4996C8168,4990 8154,4881 8135,4755C8115,4628 8077,4372 8050,4185C7996,3820 7983,3758 7939,3665C7888,3556 7861,3530 7476,3220C7337,3108 7339,3111 7359,3035C7377,2967 7351,2932 7189,2800C7111,2737 6974,2625 6886,2552C6798,2480 6711,2413 6694,2405C6651,2385 6611,2386 6573,2409C6535,2433 6362,2642 6343,2688C6316,2752 6340,2799 6440,2882C6669,3069 6796,3171 6878,3233C6898,3249 6929,3274 6945,3289C7015,3356 7104,3368 7156,3319C7179,3298 7183,3297 7205,3310C7244,3334 7590,3620 7657,3683C7743,3765 7748,3782 7805,4175C7824,4313 7847,4463 7855,4510C7881,4661 7920,4941 7920,4976L7920,5010L7266,5009C6540,5009 6600,5015 6600,4941C6600,4804 6494,4495 6392,4336C6205,4043 5910,3814 5585,3706C5409,3648 5330,3636 5125,3636C4865,3636 4709,3671 4477,3779C4170,3921 3871,4234 3748,4539C3646,4793 3612,5038 3644,5289C3675,5531 3754,5745 3886,5946C4012,6138 4242,6336 4475,6452C4619,6524 4881,6600 4986,6600L5010,6600L5010,9020L4983,9018C4967,9017 4924,9015 4885,9013ZM3965,8294C3974,8285 3980,8266 3978,8251C3975,8222 3985,8228 3719,8102C3299,7902 2953,7644 2646,7299C2107,6695 1820,5941 1816,5120C1815,4782 1841,4570 1925,4245C2074,3665 2366,3158 2800,2730C3249,2286 3782,1991 4386,1850C4988,1710 5573,1738 6164,1935C6251,1964 6331,1985 6342,1982C6365,1976 6381,1941 6373,1912C6366,1885 6337,1872 6128,1805C5935,1744 5801,1713 5580,1679C5381,1648 4903,1645 4710,1673C4489,1706 4368,1730 4225,1771C3672,1929 3193,2198 2780,2585C2347,2990 2031,3498 1847,4085C1801,4230 1748,4483 1720,4685C1702,4816 1696,5242 1709,5387C1785,6196 2087,6875 2626,7448C2936,7777 3304,8040 3722,8231C3904,8314 3936,8322 3965,8294ZM4104,7891C4129,7864 4121,7819 4090,7803C4076,7796 3999,7760 3918,7721C3586,7564 3344,7395 3089,7140C2777,6828 2559,6483 2414,6072C2247,5599 2209,5131 2294,4578C2320,4414 2392,4164 2469,3971C2551,3768 2724,3477 2881,3278C2979,3156 3187,2945 3320,2835C3500,2686 3801,2505 4020,2415C4442,2242 4888,2167 5315,2199C5584,2220 5756,2255 6037,2347C6176,2392 6180,2393 6200,2375C6222,2355 6227,2308 6208,2293C6181,2272 5939,2191 5815,2161C5599,2110 5437,2089 5200,2083C4963,2077 4831,2086 4606,2125C3818,2261 3071,2750 2636,3415C2373,3816 2222,4227 2153,4730C2126,4924 2129,5307 2159,5510C2224,5963 2351,6315 2588,6699C2699,6880 2812,7022 2989,7203C3207,7426 3408,7577 3714,7750C3792,7794 4051,7910 4071,7910C4080,7910 4095,7901 4104,7891ZM4244,7484C4263,7465 4265,7426 4247,7412C4240,7406 4158,7363 4065,7317C3786,7178 3572,7024 3364,6809C2997,6430 2762,5938 2694,5401C2666,5186 2675,4881 2716,4660C2879,3766 3512,3032 4365,2749C4639,2658 4879,2625 5197,2633C5473,2640 5647,2671 5906,2759C6018,2797 6041,2798 6062,2766C6075,2747 6071,2714 6053,2697C6011,2660 5620,2551 5450,2530C4607,2426 3770,2746 3202,3389C3071,3538 2921,3759 2830,3941C2779,4040 2701,4243 2666,4368C2615,4545 2591,4673 2573,4868C2539,5232 2593,5654 2715,5987C2772,6142 2902,6396 2995,6535C3267,6943 3658,7270 4109,7467C4194,7504 4221,7507 4244,7484ZM4387,7074C4413,7033 4391,7005 4295,6963C4104,6878 3858,6710 3702,6557C3621,6478 3494,6321 3417,6205C3267,5977 3159,5691 3113,5395C3087,5229 3090,4935 3119,4766C3186,4381 3350,4030 3590,3760C3852,3464 4166,3254 4500,3152C4681,3096 4811,3072 4983,3061C5253,3045 5503,3075 5748,3155C5810,3175 5871,3190 5883,3188C5913,3184 5931,3144 5918,3114C5910,3097 5880,3081 5801,3052C5387,2897 4825,2904 4391,3070C4156,3159 4023,3232 3842,3367C3410,3692 3119,4157 3016,4685C2973,4911 2969,5255 3009,5472C3046,5677 3122,5907 3211,6081C3422,6499 3802,6864 4226,7055C4341,7107 4363,7110 4387,7074Z" style="fill:rgb(138,86,224);fill-rule:nonzero;"/>
            </g>
        </g>
    </g>
</svg>
